<?xml version="1.0" standalone="no"?>
<!DOCTYPE svg PUBLIC "-//W3C//DTD SVG 20010904//EN"
 "http://www.w3.org/TR/2001/REC-SVG-20010904/DTD/svg10.dtd">
<svg version="1.0" xmlns="http://www.w3.org/2000/svg"
 width="1080.000000pt" height="1080.000000pt" viewBox="0 0 1080.000000 1080.000000"
 preserveAspectRatio="xMidYMid meet">
<metadata>
Created by potrace 1.14, written by Peter Selinger 2001-2017
</metadata>
<g transform="translate(0.000000,1080.000000) scale(0.100000,-0.100000)"
fill="#000000" stroke="none">
<path d="M0 5400 l0 -5400 5400 0 5400 0 0 5400 0 5400 -5400 0 -5400 0 0
-5400z m5599 3214 c294 -98 468 -418 391 -718 -52 -206 -196 -363 -396 -433
-67 -23 -96 -27 -189 -28 -149 0 -253 33 -364 115 -280 208 -332 589 -117 869
45 60 158 150 221 176 150 63 305 70 454 19z m-1310 -1030 c294 -98 468 -418
391 -718 -52 -206 -196 -363 -396 -433 -67 -23 -96 -27 -189 -28 -149 0 -253
33 -364 115 -280 208 -332 589 -117 869 45 60 158 150 221 176 150 63 305 70
454 19z m2460 -20 c294 -98 468 -418 391 -718 -52 -206 -196 -363 -396 -433
-67 -23 -96 -27 -189 -28 -95 0 -122 4 -199 29 -297 97 -474 417 -397 718 37
145 111 258 226 344 165 124 365 155 564 88z m-1150 -1140 c294 -98 468 -418
391 -718 -52 -206 -196 -363 -396 -433 -67 -23 -96 -27 -189 -28 -149 0 -253
33 -364 115 -280 208 -332 589 -117 869 45 60 158 150 221 176 150 63 305 70
454 19z m3131 -2669 l0 -235 160 0 160 0 0 -55 0 -55 -160 0 -160 0 0 -315 0
-315 181 0 180 0 -3 -52 -3 -53 -427 -3 -428 -2 0 55 0 55 195 0 195 0 0 315
0 315 -160 0 -160 0 0 55 0 55 160 0 160 0 0 235 0 235 55 0 55 0 0 -235z
m-6647 178 c-2 -27 -5 -60 -7 -75 l-3 -28 155 0 155 0 -7 -97 c-11 -155 -25
-264 -42 -316 -23 -71 -55 -87 -170 -87 l-91 0 -6 33 c-3 17 -8 39 -11 47 -5
13 5 15 73 12 74 -4 80 -3 95 19 15 24 29 98 41 222 l7 67 -105 0 -105 0 -15
-69 c-19 -83 -63 -184 -109 -247 -29 -41 -139 -135 -156 -134 -4 1 -20 20 -36
42 -27 40 -28 43 -10 53 45 25 129 115 154 165 27 54 60 151 60 177 0 10 -25
13 -105 13 l-105 0 0 50 0 50 115 0 115 0 0 75 0 75 59 0 59 0 -5 -47z m1477
-93 l0 -140 85 0 85 0 0 -55 0 -55 -85 0 -85 0 0 -32 c0 -24 23 -66 90 -164
50 -73 90 -136 90 -139 0 -4 -15 -24 -33 -44 l-33 -37 -55 103 -54 103 -3
-385 -2 -386 -53 3 -52 3 -5 360 -5 359 -18 -59 c-28 -91 -103 -265 -134 -311
l-28 -41 -31 53 -31 53 29 43 c66 97 141 273 182 426 l25 92 -105 0 -104 0 0
55 0 55 110 0 110 0 0 140 0 140 55 0 55 0 0 -140z m433 129 c20 -5 37 -15 36
-22 0 -7 -15 -56 -32 -109 l-33 -98 293 0 293 0 0 -82 c0 -46 -5 -180 -10
-298 -25 -522 -48 -659 -120 -712 -35 -25 -133 -41 -207 -33 l-63 7 -10 39
c-6 22 -13 46 -16 53 -4 10 16 12 95 8 96 -4 100 -4 124 20 14 14 30 43 36 64
14 50 38 307 45 489 4 77 9 184 12 238 l6 97 -261 0 -261 0 -26 -52 c-15 -29
-46 -84 -71 -121 l-43 -68 -43 32 c-23 18 -44 34 -46 35 -2 2 12 25 32 51 65
88 143 264 182 406 19 73 22 75 88 56z m1144 -411 c-5 -456 -11 -513 -63 -660
-14 -40 -37 -92 -50 -115 -28 -48 -121 -163 -132 -163 -4 0 -24 16 -45 36
l-38 35 51 57 c55 61 109 163 134 252 29 103 36 224 36 602 l0 378 56 0 56 0
-5 -422z m2917 335 c36 -49 66 -91 66 -95 0 -7 -74 -58 -85 -58 -2 0 -11 13
-20 29 -8 17 -37 60 -65 96 -27 36 -50 68 -50 70 0 6 65 45 77 45 6 0 41 -39
77 -87z m-862 -25 c67 -121 189 -279 299 -390 l96 -96 -47 -47 -47 -46 -79 86
c-144 158 -390 513 -369 533 6 7 84 40 96 41 3 1 26 -36 51 -81z m-476 51 l43
-11 -35 -76 c-70 -154 -189 -330 -311 -462 l-74 -79 -50 36 c-27 21 -49 40
-49 44 0 4 17 21 38 39 107 93 241 276 319 438 34 71 48 92 60 88 9 -4 35 -11
59 -17z m-648 -66 l-3 -48 -187 -3 -188 -2 0 -90 0 -90 160 0 160 0 0 -350 c0
-239 -4 -357 -11 -374 -15 -33 -76 -56 -147 -56 l-57 0 -16 50 -16 50 69 0 68
0 0 290 0 290 -105 0 -105 0 0 -450 0 -450 -55 0 -55 0 0 450 0 450 -100 0
-100 0 0 -345 0 -345 -50 0 -50 0 0 395 0 395 150 0 150 0 0 90 0 90 -177 2
-178 3 -3 48 -3 47 426 0 426 0 -3 -47z m-3058 -243 l0 -250 -260 0 -260 0 0
250 0 250 260 0 260 0 0 -250z m1890 -160 l0 -360 -50 0 -50 0 0 360 0 360 50
0 50 0 0 -360z m3341 260 l28 -21 -23 -52 c-27 -61 -96 -177 -137 -228 l-28
-35 104 -104 104 -103 -31 -44 c-17 -24 -34 -43 -37 -43 -4 0 -38 38 -76 85
-39 46 -73 84 -77 85 -5 0 -8 -144 -8 -321 l0 -320 -52 3 -53 3 -3 303 -2 302
-74 -64 c-75 -65 -125 -102 -129 -95 -1 2 -13 26 -26 54 l-23 50 23 15 c121
80 265 222 343 338 73 111 86 101 -136 104 l-193 3 -3 39 c-6 69 -17 66 244
66 222 0 238 -1 265 -20z m-4197 -192 c22 -6 42 -13 44 -14 7 -4 -93 -254
-135 -338 -24 -48 -43 -89 -41 -91 4 -4 248 42 254 47 2 3 -11 40 -31 83 -19
43 -35 81 -35 85 0 7 80 34 84 28 15 -18 136 -329 136 -347 0 -7 -70 -41 -84
-41 -2 0 -9 23 -16 50 -7 30 -17 50 -26 50 -23 0 -337 -68 -367 -79 -23 -9
-29 -8 -34 7 -3 9 -12 32 -19 49 -10 26 -10 34 0 40 38 24 119 199 176 381 18
56 37 102 43 102 5 0 28 -5 51 -12z m2923 -41 c4 -5 -129 -227 -202 -337 -39
-57 -100 -143 -137 -190 -37 -47 -68 -88 -68 -93 0 -4 10 -5 23 -3 12 3 165
13 340 22 174 10 317 22 317 26 0 7 -81 119 -162 225 -7 8 5 19 40 37 l50 26
40 -48 c99 -119 312 -427 312 -450 0 -10 -81 -62 -97 -62 -4 0 -26 32 -47 71
-22 38 -46 75 -53 80 -13 11 -685 -31 -846 -53 -43 -5 -79 -9 -80 -7 -2 2 -12
28 -24 57 l-21 52 28 15 c41 21 128 127 229 279 77 115 109 169 218 363 l24
43 56 -26 c31 -13 58 -26 60 -27z m-4507 -227 l0 -70 288 -2 287 -3 3 -47 3
-48 -258 0 -258 -1 58 -54 c104 -98 275 -201 425 -255 34 -12 62 -25 62 -27 0
-13 -66 -83 -78 -83 -29 0 -207 91 -302 154 -53 36 -126 94 -163 131 l-67 66
-2 -198 -3 -198 -57 -3 -58 -3 0 207 0 206 -88 -83 c-107 -102 -243 -197 -365
-254 l-92 -43 -37 41 c-20 23 -37 44 -38 47 0 4 17 12 38 19 71 26 197 90 272
139 84 54 220 168 220 182 0 6 -100 10 -256 10 l-255 0 3 48 3 47 298 3 297 2
0 70 0 70 60 0 60 0 0 -70z"/>
<path d="M2600 3605 l0 -155 150 0 150 0 0 155 0 155 -150 0 -150 0 0 -155z"/>
</g>
</svg>
